<?xml version="1.0" encoding="UTF-8" standalone="no"?>
<!-- Created with Inkscape (http://www.inkscape.org/) -->

<svg
   width="210mm"
   height="297mm"
   viewBox="0 0 210 297"
   version="1.1"
   id="svg5"
   inkscape:version="1.1.1 (3bf5ae0d25, 2021-09-20)"
   sodipodi:docname="icon.svg"
   xmlns:inkscape="http://www.inkscape.org/namespaces/inkscape"
   xmlns:sodipodi="http://sodipodi.sourceforge.net/DTD/sodipodi-0.dtd"
   xmlns:xlink="http://www.w3.org/1999/xlink"
   xmlns="http://www.w3.org/2000/svg"
   xmlns:svg="http://www.w3.org/2000/svg">
  <sodipodi:namedview
     id="namedview7"
     pagecolor="#505050"
     bordercolor="#eeeeee"
     borderopacity="1"
     inkscape:pageshadow="0"
     inkscape:pageopacity="0"
     inkscape:pagecheckerboard="0"
     inkscape:document-units="mm"
     showgrid="false"
     showborder="false"
     inkscape:zoom="0.45291836"
     inkscape:cx="377.55149"
     inkscape:cy="479.11504"
     inkscape:window-width="1188"
     inkscape:window-height="1000"
     inkscape:window-x="723"
     inkscape:window-y="0"
     inkscape:window-maximized="0"
     inkscape:current-layer="layer1" />
  <defs
     id="defs2">
    <symbol
       id="m"
       overflow="visible">
      <path
         d="m31.266-1.875c-1.6172 0.84375-3.2969 1.4766-5.0469 1.8906-1.7422 0.42578-3.5586 0.64062-5.4531 0.64062-5.668 0-10.156-1.582-13.469-4.75-3.3125-3.1641-4.9688-7.4609-4.9688-12.891 0-5.4375 1.6562-9.7383 4.9688-12.906 3.3125-3.1641 7.8008-4.75 13.469-4.75 1.8945 0 3.7109 0.21484 5.4531 0.64062 1.75 0.42969 3.4297 1.0586 5.0469 1.8906v7.0469c-1.625-1.1133-3.2305-1.9258-4.8125-2.4375-1.5742-0.51953-3.2344-0.78125-4.9844-0.78125-3.1367 0-5.6016 1.0078-7.3906 3.0156-1.793 2-2.6875 4.7617-2.6875 8.2812 0 3.5117 0.89453 6.2734 2.6875 8.2812 1.7891 2 4.2539 3 7.3906 3 1.75 0 3.4102-0.25391 4.9844-0.76562 1.582-0.51953 3.1875-1.332 4.8125-2.4375z"
         id="path824" />
    </symbol>
    <symbol
       id="d"
       overflow="visible">
      <path
         d="m22.875-18.578c-0.71094-0.33203-1.418-0.57812-2.125-0.73438-0.71094-0.15625-1.418-0.23438-2.125-0.23438-2.1055 0-3.7266 0.67188-4.8594 2.0156-1.125 1.3438-1.6875 3.2656-1.6875 5.7656v11.766h-8.1562v-25.531h8.1562v4.2031c1.0508-1.6758 2.2539-2.8945 3.6094-3.6562 1.3633-0.76953 2.9922-1.1562 4.8906-1.1562 0.26953 0 0.56641 0.011719 0.89062 0.03125 0.32031 0.023437 0.78516 0.074219 1.3906 0.15625z"
         id="path827" />
    </symbol>
    <symbol
       id="b"
       overflow="visible">
      <path
         d="m29.391-12.828v2.3281h-19.062c0.19531 1.9062 0.88281 3.3398 2.0625 4.2969 1.1875 0.96094 2.8438 1.4375 4.9688 1.4375 1.7188 0 3.4766-0.25391 5.2812-0.76562 1.8008-0.50781 3.6484-1.2812 5.5469-2.3125v6.2969c-1.9297 0.73047-3.8594 1.2773-5.7969 1.6406-1.9297 0.375-3.8555 0.5625-5.7812 0.5625-4.6172 0-8.2031-1.1719-10.766-3.5156s-3.8438-5.6328-3.8438-9.875c0-4.1641 1.2539-7.4414 3.7656-9.8281 2.5195-2.3828 5.9844-3.5781 10.391-3.5781 4.0078 0 7.2188 1.2109 9.625 3.625 2.4062 2.418 3.6094 5.6484 3.6094 9.6875zm-8.375-2.7188c0-1.5391-0.45312-2.7852-1.3594-3.7344-0.90625-0.95703-2.0898-1.4375-3.5469-1.4375-1.5859 0-2.8711 0.44922-3.8594 1.3438-0.98047 0.88672-1.5898 2.1641-1.8281 3.8281z"
         id="path830" />
    </symbol>
    <symbol
       id="c"
       overflow="visible">
      <path
         d="m15.359-11.484c-1.6992 0-2.9805 0.29297-3.8438 0.875-0.85547 0.57422-1.2812 1.4219-1.2812 2.5469 0 1.0312 0.34375 1.8398 1.0312 2.4219 0.69531 0.58594 1.6602 0.875 2.8906 0.875 1.5312 0 2.8164-0.54688 3.8594-1.6406 1.0508-1.1016 1.5781-2.4844 1.5781-4.1406v-0.9375zm12.469-3.0781v14.562h-8.2344v-3.7812c-1.0938 1.5547-2.3242 2.6836-3.6875 3.3906-1.3672 0.69531-3.0273 1.0469-4.9844 1.0469-2.6484 0-4.7969-0.76953-6.4531-2.3125-1.6484-1.5391-2.4688-3.5391-2.4688-6 0-2.9883 1.0312-5.1797 3.0938-6.5781 2.0625-1.4062 5.2969-2.1094 9.7031-2.1094h4.7969v-0.64062c0-1.2891-0.51172-2.2344-1.5312-2.8281-1.0117-0.60156-2.5938-0.90625-4.75-0.90625-1.75 0-3.3828 0.17969-4.8906 0.53125-1.5 0.34375-2.8984 0.86719-4.1875 1.5625v-6.2188c1.75-0.42578 3.5039-0.75 5.2656-0.96875 1.7578-0.21875 3.5234-0.32812 5.2969-0.32812 4.5938 0 7.9102 0.91406 9.9531 2.7344 2.0508 1.8125 3.0781 4.7617 3.0781 8.8438z"
         id="path833" />
    </symbol>
    <symbol
       id="a"
       overflow="visible">
      <path
         d="m12.828-32.766v7.2344h8.4062v5.8438h-8.4062v10.828c0 1.1797 0.23438 1.9805 0.70312 2.4062 0.47656 0.41797 1.4141 0.625 2.8125 0.625h4.1875v5.8281h-7c-3.2188 0-5.5-0.67188-6.8438-2.0156s-2.0156-3.625-2.0156-6.8438v-10.828h-4.0625v-5.8438h4.0625v-7.2344z"
         id="path836" />
    </symbol>
    <symbol
       id="i"
       overflow="visible">
      <path
         d="m21.281-21.781v-13.672h8.2031v35.453h-8.2031v-3.6875c-1.125 1.5-2.3672 2.6016-3.7188 3.2969-1.3438 0.69531-2.9062 1.0469-4.6875 1.0469-3.1484 0-5.7305-1.25-7.75-3.75-2.0234-2.5-3.0312-5.7109-3.0312-9.6406 0-3.9375 1.0078-7.1562 3.0312-9.6562 2.0195-2.5 4.6016-3.75 7.75-3.75 1.7578 0 3.3164 0.35547 4.6719 1.0625 1.3633 0.71094 2.6094 1.8086 3.7344 3.2969zm-5.375 16.516c1.75 0 3.082-0.63281 4-1.9062 0.91406-1.2812 1.375-3.1328 1.375-5.5625 0-2.4375-0.46094-4.2891-1.375-5.5625-0.91797-1.2812-2.25-1.9219-4-1.9219-1.7305 0-3.0586 0.64062-3.9844 1.9219-0.91797 1.2734-1.375 3.125-1.375 5.5625 0 2.4297 0.45703 4.2812 1.375 5.5625 0.92578 1.2734 2.2539 1.9062 3.9844 1.9062z"
         id="path839" />
    </symbol>
    <symbol
       id="h"
       overflow="visible">
      <path
         d="m17.5-5.2656c1.75 0 3.082-0.63281 4-1.9062 0.91406-1.2812 1.375-3.1328 1.375-5.5625 0-2.4375-0.46094-4.2891-1.375-5.5625-0.91797-1.2812-2.25-1.9219-4-1.9219s-3.0938 0.64844-4.0312 1.9375c-0.92969 1.2812-1.3906 3.1328-1.3906 5.5469 0 2.418 0.46094 4.2656 1.3906 5.5469 0.9375 1.2812 2.2812 1.9219 4.0312 1.9219zm-5.4219-16.516c1.125-1.4883 2.3672-2.5859 3.7344-3.2969 1.3633-0.70703 2.9375-1.0625 4.7188-1.0625 3.1445 0 5.7266 1.25 7.75 3.75 2.0195 2.5 3.0312 5.7188 3.0312 9.6562 0 3.9297-1.0117 7.1406-3.0312 9.6406-2.0234 2.5-4.6055 3.75-7.75 3.75-1.7812 0-3.3555-0.35156-4.7188-1.0469-1.3672-0.70703-2.6094-1.8047-3.7344-3.2969v3.6875h-8.1562v-35.453h8.1562z"
         id="path842" />
    </symbol>
    <symbol
       id="g"
       overflow="visible">
      <path
         d="m0.5625-25.531h8.1719l6.8594 17.328 5.8281-17.328h8.1562l-10.734 27.953c-1.0742 2.832-2.3281 4.8164-3.7656 5.9531-1.4375 1.1328-3.3359 1.7031-5.6875 1.7031h-4.7188v-5.3594h2.5469c1.3828 0 2.3906-0.22656 3.0156-0.67188 0.63281-0.4375 1.1289-1.2266 1.4844-2.3594l0.21875-0.70312z"
         id="path845" />
    </symbol>
    <symbol
       id="f"
       overflow="visible">
      <path
         d="m0.23438-34.031h8.8125l9.0312 25.125 9-25.125h8.8125l-12.594 34.031h-10.469z"
         id="path848" />
    </symbol>
    <symbol
       id="l"
       overflow="visible">
      <path
         d="m24.547-24.719v6.6406c-1.1172-0.75781-2.2305-1.3203-3.3438-1.6875-1.1172-0.36328-2.2734-0.54688-3.4688-0.54688-2.2812 0-4.0586 0.66797-5.3281 2-1.2734 1.3359-1.9062 3.1953-1.9062 5.5781 0 2.3867 0.63281 4.2461 1.9062 5.5781 1.2695 1.3242 3.0469 1.9844 5.3281 1.9844 1.2695 0 2.4766-0.1875 3.625-0.5625 1.1445-0.38281 2.207-0.94531 3.1875-1.6875v6.6719c-1.2812 0.46875-2.5781 0.81641-3.8906 1.0469-1.3125 0.23828-2.6328 0.35938-3.9531 0.35938-4.6055 0-8.2109-1.1758-10.812-3.5312-2.5938-2.3633-3.8906-5.6484-3.8906-9.8594 0-4.207 1.2969-7.4922 3.8906-9.8594 2.6016-2.3633 6.207-3.5469 10.812-3.5469 1.332 0 2.6484 0.12109 3.9531 0.35938 1.3008 0.23047 2.5977 0.58594 3.8906 1.0625z"
         id="path851" />
    </symbol>
    <symbol
       id="k"
       overflow="visible">
      <path
         d="m16.062-20.312c-1.8047 0-3.1836 0.65234-4.1406 1.9531-0.94922 1.3047-1.4219 3.1797-1.4219 5.625 0 2.4492 0.47266 4.3242 1.4219 5.625 0.95703 1.293 2.3359 1.9375 4.1406 1.9375 1.7812 0 3.1406-0.64453 4.0781-1.9375 0.94531-1.3008 1.4219-3.1758 1.4219-5.625 0-2.4453-0.47656-4.3203-1.4219-5.625-0.9375-1.3008-2.2969-1.9531-4.0781-1.9531zm0-5.8281c4.3945 0 7.8281 1.1875 10.297 3.5625 2.4688 2.3672 3.7031 5.6484 3.7031 9.8438 0 4.1875-1.2344 7.4688-3.7031 9.8438-2.4688 2.3672-5.9023 3.5469-10.297 3.5469-4.4062 0-7.8555-1.1797-10.344-3.5469-2.4805-2.375-3.7188-5.6562-3.7188-9.8438 0-4.1953 1.2383-7.4766 3.7188-9.8438 2.4883-2.375 5.9375-3.5625 10.344-3.5625z"
         id="path854" />
    </symbol>
    <symbol
       id="j"
       overflow="visible">
      <path
         d="m23.859-24.719v6.1875c-1.75-0.72656-3.4375-1.2734-5.0625-1.6406-1.625-0.36328-3.1562-0.54688-4.5938-0.54688-1.5547 0-2.7109 0.19922-3.4688 0.59375-0.75 0.38672-1.125 0.98047-1.125 1.7812 0 0.65625 0.28516 1.1641 0.85938 1.5156 0.57031 0.34375 1.5938 0.60156 3.0625 0.76562l1.4375 0.20312c4.1758 0.53125 6.9844 1.4062 8.4219 2.625 1.4453 1.2109 2.1719 3.1172 2.1719 5.7188 0 2.7188-1.0078 4.7617-3.0156 6.125-2 1.3672-4.9922 2.0469-8.9688 2.0469-1.6875 0-3.4336-0.13672-5.2344-0.40625-1.793-0.25781-3.6406-0.65625-5.5469-1.1875v-6.2031c1.625 0.79297 3.2891 1.3867 5 1.7812 1.7188 0.39844 3.457 0.59375 5.2188 0.59375 1.5938 0 2.7891-0.21875 3.5938-0.65625 0.8125-0.4375 1.2188-1.0938 1.2188-1.9688 0-0.72656-0.28125-1.2695-0.84375-1.625-0.55469-0.35156-1.6562-0.62891-3.3125-0.82812l-1.4375-0.1875c-3.625-0.44531-6.168-1.2852-7.625-2.5156-1.4609-1.2383-2.1875-3.1094-2.1875-5.6094 0-2.707 0.92188-4.7109 2.7656-6.0156 1.8516-1.3125 4.6953-1.9688 8.5312-1.9688 1.5 0 3.0781 0.11719 4.7344 0.34375 1.6562 0.23047 3.457 0.58984 5.4062 1.0781z"
         id="path857" />
    </symbol>
    <symbol
       id="e"
       overflow="visible">
      <path
         d="m3.9219-35.453h8.1562v35.453h-8.1562z"
         id="path860" />
    </symbol>
  </defs>
  <g
     inkscape:label="Layer 1"
     inkscape:groupmode="layer"
     id="layer1">
    <rect
       style="fill:#ffffff;stroke-width:0.25;stroke-linecap:round"
       id="rect1007"
       width="256"
       height="256"
       x="0"
       y="0"
       inkscape:export-filename="D:\Personal\Web projects\Group-Randomizer\icons\256x256.png"
       inkscape:export-xdpi="25.4"
       inkscape:export-ydpi="25.4" />
    <g
       id="g1127"
       transform="matrix(1.3606316,0,0,1.3732872,53.41258,50.441358)"
       style="stroke-width:0.731559"
       inkscape:export-filename="D:\Personal\Web projects\Group-Randomizer\icons\256x256.png"
       inkscape:export-xdpi="25.4"
       inkscape:export-ydpi="25.4">
      <path
         d="m 101.44242,13.163325 c -10.602735,0 -20.151018,4.642556 -26.670704,12.050889 -1.481385,1.613676 -2.798798,3.424414 -3.950759,5.301192 -3.227352,5.367514 -5.07118,11.622264 -5.07118,18.340211 0,6.716536 1.843828,12.972698 5.07118,18.340212 1.152031,1.876883 2.469445,3.687586 3.950759,5.301191 6.519333,7.408334 16.067969,12.050889 26.670704,12.050889 19.68923,-0.0028 35.69053,-16.03763 35.69053,-35.725806 0,-19.688175 -16.00165,-35.658778 -35.69053,-35.658778 z m 22.35729,54.260751 c -1.41524,-3.687586 -3.75391,-6.91515 -6.68337,-9.449153 -3.81988,4.379383 -9.41599,7.145161 -15.67251,7.145161 -6.256159,0 -11.885434,-2.798798 -15.705664,-7.178322 -2.93109,2.568645 -5.268384,5.794728 -6.683375,9.482314 -4.181123,-5.071181 -6.716536,-11.557706 -6.716536,-18.603384 0,-16.067969 13.039019,-29.106989 29.106985,-29.106989 16.03481,0 29.10699,13.03902 29.10699,29.106989 -0.003,7.078839 -2.53834,13.532203 -6.75252,18.603384 z"
         id="path865"
         style="stroke-width:0.258078" />
      <path
         d="m 74.772421,25.182464 c -1.481384,1.613676 -2.798798,3.424414 -3.950758,5.301192 L 42.571924,12.505748 C 43.23063,10.233365 43.62613,7.863192 43.790101,5.459717 Z"
         id="path867"
         style="stroke-width:0.258078" />
      <path
         d="M 74.772421,72.461742 43.788654,92.184137 C 43.624669,89.780838 43.229184,87.40929 42.570477,85.138106 L 70.820216,67.160198 c 1.153407,1.878259 2.470821,3.688997 3.95217,5.301192 z"
         id="path869"
         style="stroke-width:0.258078" />
      <path
         d="m 11.487615,38.482187 v 20.677364 c -1.085885,-0.09922 -2.1731814,-0.163986 -3.292122,-0.163986 -1.1189405,0 -2.2062369,0.06615 -3.2921222,0.163986 V 38.482187 c 1.0858853,0.09922 2.1731817,0.163985 3.2921222,0.163985 1.1189759,0.03447 2.206237,-0.06477 3.292122,-0.163985 z"
         id="path871"
         style="stroke-width:0.258078" />
      <path
         d="m 8.1961986,-32.735886 c -19.6892336,0 -35.6905276,16.034808 -35.6905276,35.658778 0,18.570575 14.257161,33.913586 32.3991109,35.56 1.0858853,0.09922 2.1731817,0.163985 3.2921223,0.163985 1.1189405,0 2.2062368,-0.06615 3.2921218,-0.163985 14.915798,-1.350468 27.197051,-11.951758 31.081487,-25.978908 0.658706,-2.272383 1.054206,-4.6425559 1.218177,-7.0460309 0.06614,-0.8557683 0.09922,-1.6798219 0.09922,-2.5355903 0,-19.6246748 -16.001647,-35.6587778 -35.6905276,-35.6587778 z M 30.55349,21.524864 c -1.415238,-3.687586 -3.753908,-6.91515 -6.683375,-9.449152 -3.819877,4.346222 -9.415991,7.145161 -15.6725053,7.145161 -6.2565139,0 -11.854039,-2.765708 -15.6725056,-7.145161 -2.9310891,2.53559 -5.2683831,5.761566 -6.6833751,9.449152 -4.216753,-5.036608 -6.752519,-11.523133 -6.752519,-18.601972 0,-16.034808 13.0721802,-29.106989 29.1069886,-29.106989 16.0679694,0 29.1069894,13.072181 29.1069894,29.106989 0,1.2843228 -0.09922,2.5355903 -0.263204,3.7539084 -0.691762,5.6624366 -3.030291,10.7336166 -6.486525,14.8484166 z"
         id="path873"
         style="stroke-width:0.258078" />
      <path
         d="m 22.451949,-1.6215914 c 0,7.8701195 -6.387042,14.2571614 -14.2571615,14.2571614 -7.87011951,0 -14.2571612,-6.3870419 -14.2571612,-14.2571614 0,-7.8701195 6.38704169,-14.2571616 14.2571612,-14.2571616 7.8701195,0.0014 14.2571615,6.3884533 14.2571615,14.2571616 z"
         id="path875"
         style="stroke-width:0.258078" />
      <path
         d="m 115.69817,44.246576 c 0,7.870119 -6.38704,14.290322 -14.25716,14.290322 -7.870119,0 -14.290322,-6.420203 -14.290322,-14.290322 0,-7.87012 6.420203,-14.257162 14.290322,-14.257162 7.86871,0 14.25716,6.420203 14.25716,14.257162 z"
         id="path877"
         style="stroke-width:0.258078" />
      <path
         d="M 43.787949,92.185548 C 43.623964,89.782249 43.228479,87.410701 42.569772,85.139518 38.684983,71.080617 26.402672,60.511395 11.488286,59.160609 10.4024,59.06139 9.3151039,58.996624 8.1961633,58.996624 c -1.1189405,0 -2.2062369,0.06615 -3.2921222,0.163985 C -13.240731,60.806 -27.496481,76.117226 -27.496481,94.685331 c 0,19.689229 16.001647,35.690529 35.6905277,35.690529 19.6888803,0 35.6905283,-16.00165 35.6905283,-35.690529 0,-0.822677 -0.03168,-1.678446 -0.09784,-2.501123 z M 30.551727,113.29013 c -1.38356,-3.68759 -3.720748,-6.91515 -6.650567,-9.44916 -3.819878,4.37939 -9.449153,7.14516 -15.705667,7.14516 -6.2565139,0 -11.8540389,-2.7657 -15.6725056,-7.14516 -2.9310894,2.56865 -5.2683834,5.76157 -6.6833754,9.44916 -4.216752,-5.03802 -6.752519,-11.52455 -6.752519,-18.603387 0,-16.034809 13.0721805,-29.106989 29.1069889,-29.106989 14.6194641,0 26.7352641,10.832747 28.8106561,24.891647 0.03305,0.163985 0.03305,0.362408 0.06614,0.55947 0.163986,1.185122 0.230132,2.403299 0.230132,3.654425 0,7.080254 -2.535591,13.566774 -6.749698,18.604794 z"
         id="path879"
         style="stroke-width:0.258078" />
      <path
         d="m 22.451949,90.142965 c 0,7.870119 -6.387042,14.257165 -14.2571615,14.257165 -7.87011951,0 -14.2571612,-6.387046 -14.2571612,-14.257165 0,-7.87012 6.38704169,-14.290323 14.2571612,-14.290323 7.8701195,0 14.2571615,6.454775 14.2571615,14.290323 z"
         id="path881"
         style="stroke-width:0.258078" />
    </g>
    <g
       id="g1149"
       transform="matrix(0.59994459,0,0,0.59994459,147.26964,125.00416)"
       style="stroke-width:1.66682"
       inkscape:export-filename="D:\Personal\Web projects\Group-Randomizer\icons\256x256.png"
       inkscape:export-xdpi="25.4"
       inkscape:export-ydpi="25.4">
      <use
         x="70"
         y="700"
         xlink:href="#m"
         id="use883"
         width="100%"
         height="100%"
         transform="matrix(0.35277778,0,0,0.35277778,-68.652913,-49.955675)"
         style="stroke-width:1.66682" />
      <use
         x="104.25"
         y="700"
         xlink:href="#d"
         id="use885"
         width="100%"
         height="100%"
         transform="matrix(0.35277778,0,0,0.35277778,-68.652913,-49.955675)"
         style="stroke-width:1.66682" />
      <use
         x="127.26172"
         y="700"
         xlink:href="#b"
         id="use887"
         width="100%"
         height="100%"
         transform="matrix(0.35277778,0,0,0.35277778,-68.652913,-49.955675)"
         style="stroke-width:1.66682" />
      <use
         x="158.91406"
         y="700"
         xlink:href="#c"
         id="use889"
         width="100%"
         height="100%"
         transform="matrix(0.35277778,0,0,0.35277778,-68.652913,-49.955675)"
         style="stroke-width:1.66682" />
      <use
         x="190.40234"
         y="700"
         xlink:href="#a"
         id="use891"
         width="100%"
         height="100%"
         transform="matrix(0.35277778,0,0,0.35277778,-68.652913,-49.955675)"
         style="stroke-width:1.66682" />
      <use
         x="212.71094"
         y="700"
         xlink:href="#b"
         id="use893"
         width="100%"
         height="100%"
         transform="matrix(0.35277778,0,0,0.35277778,-68.652913,-49.955675)"
         style="stroke-width:1.66682" />
      <use
         x="244.36328"
         y="700"
         xlink:href="#i"
         id="use895"
         width="100%"
         height="100%"
         transform="matrix(0.35277778,0,0,0.35277778,-68.652913,-49.955675)"
         style="stroke-width:1.66682" />
      <use
         x="294.01562"
         y="700"
         xlink:href="#h"
         id="use897"
         width="100%"
         height="100%"
         transform="matrix(0.35277778,0,0,0.35277778,-68.652913,-49.955675)"
         style="stroke-width:1.66682" />
      <use
         x="327.41797"
         y="700"
         xlink:href="#g"
         id="use899"
         width="100%"
         height="100%"
         transform="matrix(0.35277778,0,0,0.35277778,-68.652913,-49.955675)"
         style="stroke-width:1.66682" />
      <use
         x="374.08594"
         y="700"
         xlink:href="#f"
         id="use901"
         width="100%"
         height="100%"
         transform="matrix(0.35277778,0,0,0.35277778,-68.652913,-49.955675)"
         style="stroke-width:1.66682" />
      <use
         x="410.20312"
         y="700"
         xlink:href="#b"
         id="use903"
         width="100%"
         height="100%"
         transform="matrix(0.35277778,0,0,0.35277778,-68.652913,-49.955675)"
         style="stroke-width:1.66682" />
      <use
         x="441.85156"
         y="700"
         xlink:href="#l"
         id="use905"
         width="100%"
         height="100%"
         transform="matrix(0.35277778,0,0,0.35277778,-68.652913,-49.955675)"
         style="stroke-width:1.66682" />
      <use
         x="469.51562"
         y="700"
         xlink:href="#a"
         id="use907"
         width="100%"
         height="100%"
         transform="matrix(0.35277778,0,0,0.35277778,-68.652913,-49.955675)"
         style="stroke-width:1.66682" />
      <use
         x="491.82422"
         y="700"
         xlink:href="#k"
         id="use909"
         width="100%"
         height="100%"
         transform="matrix(0.35277778,0,0,0.35277778,-68.652913,-49.955675)"
         style="stroke-width:1.66682" />
      <use
         x="523.88281"
         y="700"
         xlink:href="#d"
         id="use911"
         width="100%"
         height="100%"
         transform="matrix(0.35277778,0,0,0.35277778,-68.652913,-49.955675)"
         style="stroke-width:1.66682" />
      <use
         x="546.89844"
         y="700"
         xlink:href="#j"
         id="use913"
         width="100%"
         height="100%"
         transform="matrix(0.35277778,0,0,0.35277778,-68.652913,-49.955675)"
         style="stroke-width:1.66682" />
      <use
         x="574.67578"
         y="700"
         xlink:href="#a"
         id="use915"
         width="100%"
         height="100%"
         transform="matrix(0.35277778,0,0,0.35277778,-68.652913,-49.955675)"
         style="stroke-width:1.66682" />
      <use
         x="596.98438"
         y="700"
         xlink:href="#c"
         id="use917"
         width="100%"
         height="100%"
         transform="matrix(0.35277778,0,0,0.35277778,-68.652913,-49.955675)"
         style="stroke-width:1.66682" />
      <use
         x="628.47266"
         y="700"
         xlink:href="#e"
         id="use919"
         width="100%"
         height="100%"
         transform="matrix(0.35277778,0,0,0.35277778,-68.652913,-49.955675)"
         style="stroke-width:1.66682" />
      <use
         x="644.46875"
         y="700"
         xlink:href="#e"
         id="use921"
         width="100%"
         height="100%"
         transform="matrix(0.35277778,0,0,0.35277778,-68.652913,-49.955675)"
         style="stroke-width:1.66682" />
    </g>
  </g>
</svg>
